<?xml version="1.0" encoding="UTF-8" standalone="no"?>
<svg
   version="1.1"
   width="512"
   height="512"
   id="svg634"
   sodipodi:docname="logo-shrink.svg"
   inkscape:version="1.2.2 (732a01da63, 2022-12-09)"
   inkscape:export-filename="..\src\KamiYomu.Web\wwwroot\images\logo-shrink.png"
   inkscape:export-xdpi="96"
   inkscape:export-ydpi="96"
   xmlns:inkscape="http://www.inkscape.org/namespaces/inkscape"
   xmlns:sodipodi="http://sodipodi.sourceforge.net/DTD/sodipodi-0.dtd"
   xmlns="http://www.w3.org/2000/svg"
   xmlns:svg="http://www.w3.org/2000/svg">
  <sodipodi:namedview
     id="namedview8"
     pagecolor="#ffffff"
     bordercolor="#000000"
     borderopacity="0.25"
     inkscape:showpageshadow="2"
     inkscape:pageopacity="0.0"
     inkscape:pagecheckerboard="0"
     inkscape:deskcolor="#d1d1d1"
     showgrid="false"
     inkscape:zoom="1.4142135"
     inkscape:cx="342.59325"
     inkscape:cy="260.56886"
     inkscape:window-width="1920"
     inkscape:window-height="1111"
     inkscape:window-x="-9"
     inkscape:window-y="-9"
     inkscape:window-maximized="1"
     inkscape:current-layer="g238"
     showguides="false" />
  <defs
     id="defs638">
    <inkscape:perspective
       sodipodi:type="inkscape:persp3d"
       inkscape:vp_x="0 : 370.97988 : 1"
       inkscape:vp_y="0 : 1000 : 0"
       inkscape:vp_z="675.49896 : 370.97988 : 1"
       inkscape:persp3d-origin="337.74948 : 323.97317 : 1"
       id="perspective1565" />
  </defs>
  <g
     inkscape:groupmode="layer"
     id="g238"
     inkscape:label="Dark"
     style="display:inline">
    <g
       id="g3385"
       transform="matrix(0.8742479,0,0,0.86276305,34.362424,15.407943)">
      <g
         id="g1903"
         transform="matrix(1.0170529,0,0,1.3635715,-88.465513,91.451764)">
        <path
           id="path2817"
           style="fill:#ff00ff;stroke:none;stroke-width:0;stroke-dasharray:none"
           d="M 87.45614,5.1883454 C 92.661735,79.464914 108.28448,126.58067 175.33,160.19742 l -32.62581,6.48669 c 30.96529,64.09552 42.42914,61.17206 82.21904,60.96452 l -23.92686,16.21464 c 32.34349,30.09144 49.35758,30.96208 71.34426,17.51198 -27.37747,-38.91623 -43.92467,-108.75235 -43.0672,-177.857075 43.43793,-4.518673 80.43683,17.353205 106.97677,41.481205 34.64589,-32.138626 53.81607,-48.430172 106.97532,-41.481205 0.85747,69.104725 -15.68973,138.940845 -43.0672,177.857075 21.98668,13.4501 39.00078,12.57946 71.34426,-17.51198 l -23.92685,-16.21464 c 39.78989,0.20754 51.25374,3.131 82.21903,-60.96452 l -32.62582,-6.48669 C 564.21447,126.58067 579.83721,79.464914 585.04282,5.1883454 L 336.2502,88.889316 Z"
           sodipodi:nodetypes="ccccccccccccccccc" />
        <path
           id="path1583"
           style="fill:#000000;stroke:none;stroke-width:0;stroke-dasharray:none"
           d="m 111.32575,20.56138 c 4.70618,65.642663 18.83004,107.28169 79.44312,136.99082 l -29.49565,5.73267 c 27.99443,56.64507 38.35842,54.06143 74.33082,53.87801 l -21.63129,14.32986 c 29.24041,26.59361 44.62217,27.36305 64.49939,15.47638 -24.75083,-34.3926 -39.71049,-96.11097 -38.93526,-157.182969 39.27042,-3.993422 72.71959,15.336069 96.71325,36.659419 31.32192,-28.402819 48.65287,-42.800637 96.71195,-36.659419 0.77522,61.071999 -14.18444,122.790369 -38.93527,157.182969 19.87722,11.88667 35.25899,11.11723 64.49938,-15.47638 l -21.63128,-14.32986 c 35.9724,0.18342 46.3364,2.76706 74.33082,-53.87801 L 481.73009,157.5522 C 542.34316,127.84307 556.46703,86.204043 561.1732,20.56138 L 336.25013,94.532952 Z"
           sodipodi:nodetypes="ccccccccccccccccc"
           inkscape:export-filename="..\src\KamiYomu.Web\wwwroot\images\logo.svg"
           inkscape:export-xdpi="96"
           inkscape:export-ydpi="96" />
        <path
           id="path2792"
           style="fill:#f9f9f9;stroke:none;stroke-width:0;stroke-dasharray:none"
           d="m 137.44921,36.69622 c 4.15958,56.580904 16.64305,92.4718 70.2163,118.07968 l -26.06991,4.9413 c 24.74305,48.8254 33.90334,46.59843 65.69777,46.44032 l -19.11894,12.35167 c 25.84431,22.92245 39.43957,23.58567 57.00816,13.33992 -21.87614,-29.64483 -35.09834,-82.84316 -34.41316,-135.484375 34.70941,-3.442142 64.27367,13.218975 85.48062,31.598715 27.68408,-24.48191 43.00216,-36.892158 85.47948,-31.598715 0.68517,52.641215 -12.53702,105.839545 -34.41317,135.484375 17.56859,10.24575 31.16385,9.58253 57.00816,-13.33992 L 425.20559,206.15752 C 457,206.31563 466.1603,208.5426 490.90334,159.7172 l -26.06991,-4.9413 C 518.4067,129.16802 530.89016,93.277124 535.04974,36.69622 l -198.79969,63.76004 z"
           sodipodi:nodetypes="ccccccccccccccccc" />
      </g>
      <path
         style="fill:#000000;fill-opacity:0;stroke-width:0"
         d="m 246.16249,443.76836 c -16.57116,-16.37623 -29.03246,-31.80592 -40.00813,-49.53843 -3.74383,-6.0486 -11.12343,-20.18324 -13.82301,-26.47612 -13.07005,-30.46699 -19.5344,-62.62502 -21.7078,-107.98935 -0.36741,-7.66863 -0.94854,-28.70095 -0.80094,-28.9873 0.12265,-0.23795 9.2981,4.42158 14.33971,7.28208 19.32446,10.96427 34.74357,25.52225 45.72357,43.17 3.1873,5.12283 8.20951,14.98134 10.80021,21.20066 5.07381,12.18029 9.17008,26.13965 11.84566,40.36795 0.46043,2.4485 0.9024,4.45522 0.98215,4.45937 0.0797,0.004 0.68183,-2.83863 1.33801,-6.31729 1.5243,-8.08121 4.76782,-20.73923 7.20203,-28.10641 12.26316,-37.11472 33.67262,-64.0412 61.19201,-76.96063 3.28854,-1.54388 7.67617,-3.20209 13.30755,-5.02935 l 0.68338,-0.22174 v 4.6966 c 0,15.1663 -1.35437,39.35195 -3.1038,55.42674 -7.03107,64.60504 -29.53661,110.82192 -75.85374,155.77148 -2.49284,2.41925 -4.6175,4.39296 -4.72144,4.38601 -0.10394,-0.007 -3.43188,-3.21736 -7.39542,-7.13427 z m -17.27697,-97.49938 c 0.88488,-0.27852 2.33859,-1.06248 3.23047,-1.74214 1.76097,-1.34194 4.97633,-4.95521 4.97633,-5.59218 0,-0.31774 -12.8741,-27.27387 -18.91307,-39.60068 l -1.39862,-2.85488 -1.11349,1.26596 c -1.67541,1.90486 -3.78492,6.5888 -4.43647,9.85069 -0.7666,3.83798 -0.9317,10.79143 -0.3581,15.08215 1.14378,8.55585 4.57971,16.83051 8.5795,20.66179 3.27224,3.13439 6.04572,3.99561 9.43345,2.92929 z m 56.46266,-0.95039 c 6.15254,-3.96952 10.86719,-15.5114 11.30639,-27.67909 0.30639,-8.48802 -1.85008,-16.47733 -5.46777,-20.25701 -0.8297,-0.86685 -0.93325,-0.88103 -1.22188,-0.1673 -0.17344,0.4289 -4.73238,9.93171 -10.131,21.11738 -5.39862,11.18565 -9.8107,20.48156 -9.80466,20.65759 0.0198,0.57356 3.43055,4.41137 4.8335,5.43858 3.51588,2.57424 7.36799,2.90116 10.48542,0.88985 z"
         id="path978" />
      <path
         style="fill:#000000;fill-opacity:0;stroke-width:0"
         d="m 246.16249,443.76836 c -16.57116,-16.37623 -29.03246,-31.80592 -40.00813,-49.53843 -3.74383,-6.0486 -11.12343,-20.18324 -13.82301,-26.47612 -13.07005,-30.46699 -19.5344,-62.62502 -21.7078,-107.98935 -0.36741,-7.66863 -0.94854,-28.70095 -0.80094,-28.9873 0.12265,-0.23795 9.2981,4.42158 14.33971,7.28208 19.32446,10.96427 34.74357,25.52225 45.72357,43.17 3.1873,5.12283 8.20951,14.98134 10.80021,21.20066 5.07381,12.18029 9.17008,26.13965 11.84566,40.36795 0.46043,2.4485 0.9024,4.45522 0.98215,4.45937 0.0797,0.004 0.68183,-2.83863 1.33801,-6.31729 1.5243,-8.08121 4.76782,-20.73923 7.20203,-28.10641 12.26316,-37.11472 33.67262,-64.0412 61.19201,-76.96063 3.28854,-1.54388 7.67617,-3.20209 13.30755,-5.02935 l 0.68338,-0.22174 v 4.6966 c 0,15.1663 -1.35437,39.35195 -3.1038,55.42674 -7.03107,64.60504 -29.53661,110.82192 -75.85374,155.77148 -2.49284,2.41925 -4.6175,4.39296 -4.72144,4.38601 -0.10394,-0.007 -3.43188,-3.21736 -7.39542,-7.13427 z m -17.27697,-97.49938 c 0.88488,-0.27852 2.33859,-1.06248 3.23047,-1.74214 1.76097,-1.34194 4.97633,-4.95521 4.97633,-5.59218 0,-0.31774 -12.8741,-27.27387 -18.91307,-39.60068 l -1.39862,-2.85488 -1.11349,1.26596 c -1.67541,1.90486 -3.78492,6.5888 -4.43647,9.85069 -0.7666,3.83798 -0.9317,10.79143 -0.3581,15.08215 1.14378,8.55585 4.57971,16.83051 8.5795,20.66179 3.27224,3.13439 6.04572,3.99561 9.43345,2.92929 z m 56.46266,-0.95039 c 6.15254,-3.96952 10.86719,-15.5114 11.30639,-27.67909 0.30639,-8.48802 -1.85008,-16.47733 -5.46777,-20.25701 -0.8297,-0.86685 -0.93325,-0.88103 -1.22188,-0.1673 -0.17344,0.4289 -4.73238,9.93171 -10.131,21.11738 -5.39862,11.18565 -9.8107,20.48156 -9.80466,20.65759 0.0198,0.57356 3.43055,4.41137 4.8335,5.43858 3.51588,2.57424 7.36799,2.90116 10.48542,0.88985 z"
         id="path980" />
      <g
         id="g1885"
         transform="matrix(1.5432276,0,0,1.3669548,-109.52606,76.844804)">
        <path
           id="path1303"
           style="fill:#ffffff;stroke:none;stroke-width:0;stroke-dasharray:none"
           d="m 149.29484,85.572084 c 26.17414,-0.546363 71.18475,10.806218 85.955,51.673996 15.75929,-43.604152 65.94473,-53.607335 90.94358,-51.410363 -0.65173,67.977563 -13.12365,129.026623 -90.94358,186.882843 -82.6839,-61.60709 -83.12127,-110.67165 -90.94358,-186.882843 1.56885,-0.137876 3.236,-0.227053 4.98858,-0.263633 z"
           sodipodi:nodetypes="cccccc" />
        <path
           id="path1581"
           style="fill:#000000;stroke:none;stroke-width:0;stroke-dasharray:none"
           d="m 149.52565,85.925365 c -1.74789,0.03686 -3.41052,0.127969 -4.97514,0.266886 7.80129,76.787119 8.23777,126.221279 90.69961,188.293929 77.61093,-58.29344 90.04963,-119.80266 90.69962,-188.293929 -24.93171,-2.213574 -74.98266,7.863862 -90.69962,51.797539 C 220.51954,96.813165 175.62949,85.374873 149.52565,85.925365 Z m 3.23779,7.944829 c 39.69125,13.506386 70.55565,35.271976 82.48668,85.778076 C 246.05018,129.9734 279.122,101.65328 317.73681,93.870194 316.79415,161.51527 304.52692,207.66586 235.25012,255.94036 165.97241,207.6656 153.7061,161.5156 152.76344,93.870194 Z"
           sodipodi:nodetypes="sccccsccccc" />
        <path
           style="fill:#000000;stroke:none;stroke-width:0;stroke-dasharray:none"
           d="m 271.44227,142.61826 -19.92684,30.85588 c 18.4527,19.896 35.57371,-19.19247 19.92684,-30.85588 z"
           id="path1579" />
        <path
           style="fill:#000000;stroke:none;stroke-width:0;stroke-dasharray:none"
           d="m 199.05708,142.61826 19.92685,30.85588 c -18.45271,19.896 -35.57373,-19.19247 -19.92685,-30.85588 z"
           id="path1679" />
      </g>
    </g>
  </g>
  <g
     inkscape:groupmode="layer"
     id="layer1"
     inkscape:label="Light"
     style="display:inline"
     transform="matrix(0.92923241,0,0,0.86440677,23.901716,19.121373)" />
</svg>
